<?xml version="1.0" encoding="utf-8"?>
<!-- Generator: Adobe Illustrator 16.0.0, SVG Export Plug-In . SVG Version: 6.00 Build 0)  -->
<!DOCTYPE svg PUBLIC "-//W3C//DTD SVG 1.1//EN" "http://www.w3.org/Graphics/SVG/1.1/DTD/svg11.dtd">
<svg version="1.1" id="Capa_1" xmlns="http://www.w3.org/2000/svg" xmlns:xlink="http://www.w3.org/1999/xlink" x="0px" y="0px"
	 width="275.667px" height="45.771px" viewBox="-28.493 -16.228 275.667 45.771"
	 enable-background="new -28.493 -16.228 275.667 45.771" xml:space="preserve">
<path fill="#5AB7DE" d="M-3.801,16.799c-1.828,2.273-3.393,4.034-4.096,4.813c-0.281,0.316-0.688,0.494-1.116,0.494
	c-0.43,0-0.838-0.178-1.119-0.494c-0.692-0.764-2.229-2.499-4.03-4.729l-14.332,4.974l19.479,7.24l20.222-7.24L-3.801,16.799z"/>
<path fill="#5AB7DE" d="M18.001-4.927c0.085,0,0.696,1.178,1.841,3.532c0.66,1.244,3.015,5.873,7.053,13.885h0.05
	C32.073,2.32,35.029-3.483,35.807-4.927h4.897l0.077,0.033L29.455,17.368h-5.022c-0.054-0.019-1.997-3.796-5.826-11.318
	c-0.799-1.608-2.647-5.256-5.552-10.946l0.079-0.033h4.867V-4.927z"/>
<path fill="#5AB7DE" d="M46.766-4.927c0.051,0,0.081,0.031,0.081,0.08v22.142c0,0.048-0.03,0.077-0.081,0.077H42.46
	c-0.053,0-0.078-0.029-0.078-0.077V-4.847c0.006-0.049,0.037-0.08,0.078-0.08H46.766z"/>
<path fill="#5AB7DE" d="M75.175-4.927c0.052,0.012,0.08,0.038,0.08,0.08v4.228c0,0.054-0.027,0.079-0.08,0.079H54.552
	c-0.771,0-1.298,0.448-1.6,1.35v0.436c0,0.842,0.563,1.37,1.682,1.585h13.331c2.291,0,4.258,1.007,5.899,3.015
	c0.931,1.319,1.39,2.686,1.39,4.122v0.265c0,2.395-1.142,4.4-3.436,6.014c-1.287,0.752-2.538,1.123-3.746,1.123H48.603
	c-0.054,0-0.086-0.03-0.086-0.076v-4.233c0.015-0.05,0.042-0.08,0.086-0.08h19.359c1.115,0,1.993-0.627,2.621-1.896
	c0.106-0.355,0.162-0.674,0.162-0.962v-0.047c0-1.321-0.731-2.247-2.193-2.784c-0.299-0.051-0.512-0.08-0.644-0.08h-12.81
	c-1.932,0-3.471-0.528-4.624-1.597c-1.353-1.298-2.035-2.692-2.035-4.184V0.932c0-2,1.017-3.685,3.044-5.054
	c1.03-0.537,2.031-0.811,2.991-0.811h20.699V-4.927z"/>
<path fill="#5AB7DE" d="M81.289-4.927c0.053,0.012,0.081,0.038,0.081,0.08V6.44c0,1.987,0.917,3.72,2.751,5.194
	c1.269,0.898,2.585,1.352,3.951,1.352h4.273c2.117,0,3.955-0.97,5.502-2.908c0.823-1.131,1.233-2.563,1.233-4.303V-4.847
	c0.011-0.049,0.033-0.08,0.078-0.08h4.304c0.054,0.012,0.08,0.038,0.08,0.08V6.784c0,2.227-0.914,4.474-2.748,6.744
	c-1.054,1.071-1.984,1.832-2.784,2.288c-1.93,1.036-3.78,1.552-5.552,1.552H87.87c-2.41,0-4.794-0.912-7.138-2.753
	c-1.185-1.137-1.994-2.106-2.431-2.905c-0.96-1.803-1.442-3.524-1.442-5.164V-4.847c0.011-0.049,0.041-0.08,0.083-0.08H81.289z"/>
<path fill="#5AB7DE" d="M121.511-4.927c0.028,0.012,1.965,3.784,5.822,11.322c0.657,1.346,2.501,4.994,5.531,10.943l-0.079,0.034
	h-4.862c-0.079,0-0.729-1.255-1.952-3.763c-4.214-8.2-6.53-12.749-6.942-13.65h-0.046c-5.151,10.208-8.102,16.012-8.851,17.413
	h-4.909l-0.082-0.034l11.33-22.26h5.04V-4.927L121.511-4.927z"/>
<path fill="#5AB7DE" d="M138.973,6.44c0,1.987,0.923,3.72,2.755,5.194c1.271,0.898,2.586,1.352,3.953,1.352h15.387
	c0.052,0.009,0.081,0.037,0.081,0.077v4.232c0,0.048-0.029,0.077-0.081,0.077h-15.597c-2.415,0-4.788-0.916-7.138-2.752
	c-1.184-1.142-1.996-2.107-2.43-2.905c-0.963-1.807-1.444-3.525-1.444-5.165V-4.847c0.015-0.049,0.041-0.075,0.083-0.075h4.429
	L138.973,6.44L138.973,6.44z"/>
<path fill="#FFFFFF" d="M189.485-4.927c0.048,0.012,0.079,0.038,0.079,0.08v4.228c0,0.054-0.031,0.079-0.079,0.079h-20.622
	c-0.769,0-1.301,0.448-1.602,1.35v0.436c0,0.842,0.559,1.37,1.684,1.585h13.325c2.292,0,4.261,1.007,5.899,3.015
	c0.931,1.319,1.395,2.686,1.395,4.122v0.265c0,2.395-1.148,4.4-3.442,6.014c-1.287,0.752-2.538,1.123-3.745,1.123h-19.467
	c-0.055,0-0.08-0.03-0.08-0.076v-4.233c0.014-0.05,0.036-0.08,0.08-0.08h19.36c1.117,0,1.995-0.627,2.621-1.896
	c0.108-0.355,0.157-0.674,0.157-0.962v-0.047c0-1.321-0.731-2.247-2.188-2.784c-0.303-0.051-0.509-0.08-0.64-0.08h-12.813
	c-1.93,0-3.471-0.528-4.622-1.597c-1.357-1.298-2.033-2.692-2.033-4.184V0.932c0-2,1.013-3.685,3.042-5.054
	c1.03-0.537,2.026-0.811,2.985-0.811h20.706V-4.927z"/>
<path fill="#FFFFFF" d="M207.533-4.927c0.027,0.012,1.974,3.784,5.82,11.322c0.659,1.346,2.501,4.994,5.534,10.943l-0.077,0.034
	h-4.864c-0.076,0-0.728-1.255-1.954-3.763c-4.214-8.2-6.525-12.749-6.944-13.65H205c-5.15,10.208-8.099,16.012-8.845,17.413h-4.91
	l-0.08-0.034l11.323-22.26h5.045V-4.927L207.533-4.927z"/>
<path fill="#FFFFFF" d="M247.094-4.927c0.057,0.012,0.079,0.038,0.079,0.08v4.228c0,0.054-0.022,0.079-0.079,0.079h-11.005v17.832
	c0,0.051-0.031,0.076-0.083,0.076h-4.354c-0.053,0-0.08-0.025-0.08-0.076V-0.54h-11.006c-0.052,0-0.079-0.028-0.079-0.079v-4.228
	c0.01-0.049,0.037-0.08,0.079-0.08H247.094z"/>
<path fill="#5AB7DE" d="M48.388-12.578c0,2.016-1.682,3.649-3.759,3.649c-2.075,0-3.759-1.635-3.759-3.649
	c0-2.016,1.684-3.65,3.759-3.65C46.706-16.228,48.388-14.593,48.388-12.578"/>
<g>
	<path fill="#FFFFFF" d="M22.59,29.39l0.988-5.917h0.106l2.79,4.854l2.756-4.854h0.116l0.988,5.917h-0.673l-0.678-4.23l-2.425,4.23
		h-0.177l-2.453-4.265l-0.675,4.265H22.59z"/>
	<path fill="#FFFFFF" d="M41.335,23.321c1.036,0,1.904,0.298,2.605,0.899c0.7,0.595,1.054,1.331,1.054,2.208
		c0,0.865-0.346,1.6-1.051,2.203c-0.693,0.603-1.545,0.905-2.548,0.905c-1.019,0-1.876-0.3-2.58-0.902
		c-0.697-0.598-1.047-1.326-1.047-2.18c0-0.564,0.159-1.097,0.479-1.579c0.319-0.488,0.751-0.868,1.305-1.144
		C40.098,23.461,40.695,23.321,41.335,23.321z M41.369,23.895c-0.51,0-0.989,0.113-1.444,0.342
		c-0.457,0.232-0.812,0.538-1.068,0.926c-0.252,0.387-0.382,0.819-0.382,1.293c0,0.706,0.284,1.3,0.848,1.782
		c0.565,0.483,1.247,0.727,2.047,0.727c0.53,0,1.021-0.113,1.478-0.333c0.45-0.225,0.804-0.529,1.059-0.92
		c0.25-0.384,0.375-0.815,0.375-1.287c0-0.469-0.125-0.896-0.375-1.273c-0.255-0.382-0.61-0.682-1.074-0.915
		C42.369,24.011,41.885,23.895,41.369,23.895z"/>
	<path fill="#FFFFFF" d="M52.767,29.39v-5.917h0.148l4.565,4.533v-4.533h0.672v5.917h-0.15l-4.523-4.483v4.483H52.767L52.767,29.39z
		"/>
	<path fill="#FFFFFF" d="M66.119,23.473h0.688v5.917h-0.688V23.473z"/>
	<path fill="#FFFFFF" d="M74.091,24.053v-0.58h3.759v0.571h-1.524v5.346h-0.708v-5.346h-1.528v0.009H74.091z"/>
	<path fill="#FFFFFF" d="M88.499,23.321c1.042,0,1.905,0.298,2.604,0.899c0.704,0.595,1.051,1.331,1.051,2.208
		c0,0.865-0.347,1.6-1.05,2.203c-0.694,0.603-1.546,0.905-2.552,0.905c-1.016,0-1.876-0.3-2.573-0.902
		c-0.702-0.598-1.045-1.326-1.045-2.18c0-0.564,0.154-1.097,0.472-1.579c0.32-0.488,0.752-0.868,1.307-1.144
		C87.261,23.461,87.855,23.321,88.499,23.321z M88.528,23.895c-0.504,0-0.985,0.113-1.445,0.342
		c-0.452,0.232-0.813,0.538-1.056,0.926c-0.264,0.387-0.386,0.819-0.386,1.293c0,0.706,0.275,1.3,0.842,1.782
		c0.563,0.483,1.248,0.727,2.045,0.727c0.527,0,1.028-0.113,1.475-0.333c0.456-0.225,0.809-0.529,1.063-0.92
		c0.255-0.384,0.378-0.815,0.378-1.287c0-0.469-0.123-0.896-0.378-1.273c-0.254-0.382-0.607-0.682-1.075-0.915
		C89.537,24.011,89.042,23.895,88.528,23.895z"/>
	<path fill="#FFFFFF" d="M99.963,23.473h1.362c0.762,0,1.276,0.025,1.549,0.078c0.408,0.08,0.737,0.253,0.99,0.517
		s0.386,0.593,0.386,0.978c0,0.324-0.091,0.605-0.266,0.851c-0.174,0.245-0.424,0.431-0.754,0.557
		c-0.326,0.122-0.773,0.188-1.349,0.192l2.464,2.745H103.5l-2.468-2.745h-0.387v2.745H99.96v-5.917H99.963z M100.646,24.053v2.012
		l1.182,0.006c0.46,0,0.795-0.036,1.012-0.112c0.218-0.076,0.393-0.195,0.512-0.356c0.126-0.167,0.192-0.352,0.192-0.557
		c0-0.195-0.066-0.378-0.192-0.542c-0.121-0.16-0.284-0.277-0.486-0.35c-0.2-0.066-0.539-0.101-1.009-0.101H100.646L100.646,24.053z
		"/>
	<path fill="#FFFFFF" d="M112.124,23.473h3.929v0.571h-3.246v1.858h3.212v0.578h-3.212v2.328h3.212v0.578h-3.896L112.124,23.473
		L112.124,23.473z"/>
	<path fill="#FFFFFF" d="M126.896,23.321c1.038,0,1.904,0.298,2.604,0.899c0.7,0.595,1.05,1.331,1.05,2.208
		c0,0.865-0.346,1.6-1.046,2.203c-0.701,0.602-1.554,0.905-2.554,0.905c-1.019,0-1.878-0.3-2.573-0.902
		c-0.707-0.598-1.057-1.326-1.057-2.18c0-0.564,0.157-1.097,0.479-1.579c0.319-0.488,0.759-0.868,1.306-1.144
		C125.658,23.461,126.25,23.321,126.896,23.321z M126.926,23.895c-0.513,0-0.994,0.113-1.445,0.342
		c-0.456,0.232-0.81,0.538-1.066,0.926c-0.255,0.387-0.385,0.819-0.385,1.293c0,0.706,0.285,1.3,0.849,1.782
		c0.568,0.483,1.248,0.727,2.048,0.727c0.525,0,1.018-0.113,1.476-0.333c0.447-0.225,0.806-0.529,1.055-0.92
		c0.262-0.384,0.383-0.815,0.383-1.287c0-0.469-0.121-0.896-0.383-1.273c-0.249-0.382-0.608-0.682-1.068-0.915
		C127.931,24.011,127.439,23.895,126.926,23.895z"/>
	<path fill="#FFFFFF" d="M146.646,28.284l0.584-0.297c0.404,0.65,0.879,0.977,1.421,0.977c0.231,0,0.445-0.045,0.646-0.134
		c0.202-0.094,0.354-0.221,0.467-0.374c0.102-0.156,0.151-0.325,0.151-0.498c0-0.195-0.077-0.394-0.23-0.582
		c-0.212-0.263-0.605-0.577-1.175-0.947c-0.569-0.372-0.93-0.643-1.066-0.809c-0.24-0.282-0.364-0.583-0.364-0.909
		c0-0.257,0.073-0.487,0.218-0.703c0.138-0.212,0.337-0.378,0.603-0.503c0.259-0.117,0.54-0.182,0.842-0.182
		c0.324,0,0.629,0.067,0.911,0.209c0.274,0.133,0.577,0.392,0.89,0.762l-0.557,0.363c-0.264-0.291-0.483-0.487-0.659-0.579
		c-0.183-0.099-0.383-0.145-0.595-0.145c-0.282,0-0.503,0.074-0.678,0.22c-0.177,0.146-0.269,0.327-0.269,0.536
		c0,0.128,0.036,0.25,0.098,0.374c0.064,0.121,0.178,0.25,0.34,0.396c0.091,0.072,0.389,0.269,0.889,0.586
		c0.585,0.384,0.996,0.719,1.215,1.017c0.22,0.296,0.336,0.589,0.336,0.883c0,0.434-0.19,0.808-0.563,1.122
		c-0.38,0.32-0.839,0.477-1.38,0.477c-0.418,0-0.795-0.099-1.137-0.292C147.244,29.06,146.937,28.738,146.646,28.284z"/>
	<path fill="#FFFFFF" d="M161.311,23.473l3.195,5.917h-0.742l-1.081-1.95h-2.952l-1.067,1.95h-0.768l3.239-5.917H161.311z
		 M161.221,24.73l-1.174,2.141h2.345L161.221,24.73z"/>
	<path fill="#FFFFFF" d="M170.511,24.053v-0.58h3.757v0.571h-1.529v5.346h-0.703v-5.346h-1.525L170.511,24.053L170.511,24.053z"/>
	<path fill="#FFFFFF" d="M181.655,23.473h3.931v0.571h-3.245v1.858h3.212v0.578h-3.212v2.328h3.212v0.578h-3.895V23.47h-0.003
		V23.473z"/>
	<path fill="#FFFFFF" d="M193.16,23.473h0.688v5.345h2.644v0.569h-3.329v-5.914H193.16z"/>
	<path fill="#FFFFFF" d="M203.873,23.473h0.681v5.917h-0.681V23.473z"/>
	<path fill="#FFFFFF" d="M211.843,24.053v-0.58h3.758v0.571h-1.528v5.346h-0.704v-5.346h-1.526L211.843,24.053L211.843,24.053z"/>
	<path fill="#FFFFFF" d="M225.007,23.473l3.199,5.917h-0.743l-1.076-1.95h-2.957l-1.071,1.95h-0.764l3.243-5.917H225.007z
		 M224.92,24.73l-1.177,2.141h2.346L224.92,24.73z"/>
	<path fill="#FFFFFF" d="M235.663,23.473h0.686v5.345h2.64v0.569h-3.325V23.473z"/>
</g>
<g>
	<path fill="#5AB7DE" d="M4.672-1.005c0-7.732-6.229-13.959-13.963-13.959c-7.737,0-13.965,6.227-13.965,13.959
		c0,7.731,13.965,22.168,13.965,22.168S4.672,6.726,4.672-1.005z M-15.795-1.28c0-3.557,2.943-6.5,6.504-6.5
		c3.559,0,6.502,2.874,6.502,6.5c0,3.559-2.875,6.5-6.502,6.5C-12.852,5.221-15.795,2.279-15.795-1.28z"/>
</g>
</svg>
